<svg xmlns="http://www.w3.org/2000/svg" viewBox="0 0 520 179.28">
    <title>dcorrea design Logo</title>
    <g id="Camada_2" data-name="Camada 2">
        <path class="cls-1" d="M342.57,97.7a5.38,5.38,0,0,1-3.9-1.52,5.19,5.19,0,0,1-1.56-3.87,5,5,0,0,1,1.56-3.75,5.47,5.47,0,0,1,3.9-1.48,5.19,5.19,0,0,1,3.75,1.52,5,5,0,0,1,1.56,3.71,5.26,5.26,0,0,1-5.31,5.39Zm3.59,5.94V145.5h-7.49V103.64Z"/>
        <path class="cls-1" d="M234.41,38.09V16.37h11V75.73H234.64V70.5a16.34,16.34,0,0,1-13.19,6.24,19.8,19.8,0,0,1-15.08-6.32,22.65,22.65,0,0,1-6-16,22.54,22.54,0,0,1,6-15.93,20,20,0,0,1,15.08-6.41A16.65,16.65,0,0,1,234.41,38.09ZM235,54.41a12.25,12.25,0,0,0-3.28-8.67,11,11,0,0,0-8.52-3.59,11.22,11.22,0,0,0-8.59,3.59,12.25,12.25,0,0,0-3.28,8.67,12.61,12.61,0,0,0,3.28,8.82,11.34,11.34,0,0,0,8.59,3.52,11.11,11.11,0,0,0,8.52-3.52A12.61,12.61,0,0,0,235,54.41Z"/>
        <path class="cls-1" d="M275.72,76.67q-9.84,0-16.24-6.25t-6.33-16q0-9.84,6.41-16Q266,32.07,276,32.07A23.13,23.13,0,0,1,288,35.2a19.13,19.13,0,0,1,7.92,8.74l-8.82,4.84q-3.92-6.48-10.86-6.48a11.44,11.44,0,0,0-8.67,3.52,11.64,11.64,0,0,0-3.43,8.59,12,12,0,0,0,3.35,8.75A11.57,11.57,0,0,0,276,66.59a12.38,12.38,0,0,0,6.4-1.8,11,11,0,0,0,4.45-4.6l8.91,5.23a20.26,20.26,0,0,1-8.09,8.2A23.62,23.62,0,0,1,275.72,76.67Z"/>
        <path class="cls-1" d="M300.09,54.41a21.54,21.54,0,0,1,6.4-15.86,23.78,23.78,0,0,1,32.8,0,21.55,21.55,0,0,1,6.41,15.86,21.63,21.63,0,0,1-6.41,15.93,24,24,0,0,1-32.8,0A21.62,21.62,0,0,1,300.09,54.41Zm14.37,8.67a11.79,11.79,0,0,0,16.79,0,12.28,12.28,0,0,0,3.44-8.67,12,12,0,0,0-3.44-8.59,11.77,11.77,0,0,0-16.79,0,11.79,11.79,0,0,0-3.36,8.59A12.26,12.26,0,0,0,314.46,63.08Z"/>
        <path class="cls-1" d="M364.44,75.73h-11V33.17H364v5.7A12.57,12.57,0,0,1,375.69,32a15.13,15.13,0,0,1,5.15.94l-.94,10.54a17.59,17.59,0,0,0-5.07-.86,9.51,9.51,0,0,0-7.62,3.25q-2.77,3.24-2.77,9.64Z"/>
        <path class="cls-1" d="M397.32,75.73h-11V33.17h10.54v5.7A12.55,12.55,0,0,1,408.56,32a15.14,15.14,0,0,1,5.16.94l-.94,10.54a17.65,17.65,0,0,0-5.08-.86,9.5,9.5,0,0,0-7.61,3.25q-2.77,3.24-2.77,9.64Z"/>
        <path class="cls-1" d="M459,53.47a37.21,37.21,0,0,1-.39,4.84H426.68q2.34,9.06,12.42,9.06a24,24,0,0,0,13.74-4.29l4.38,7.73a31,31,0,0,1-18.59,5.86q-11.17,0-17.18-6.49a22.3,22.3,0,0,1-5.94-15.77q0-9.76,6.17-16t16-6.33q9.3,0,15.31,5.78T459,53.47ZM442.77,26.6l-5.08-6.71-5.07,6.71H422.15l11.56-13.74h8.2L453.55,26.6Zm-5.08,14.61a10.8,10.8,0,0,0-7.06,2.38,11.7,11.7,0,0,0-3.95,6.52h21.63a10.83,10.83,0,0,0-3.59-6.52A10.48,10.48,0,0,0,437.69,41.21Z"/>
        <path class="cls-1" d="M499,38.24V33.17h10.46V75.73H499V70.81a17.72,17.72,0,0,1-13.59,5.93,19.73,19.73,0,0,1-15.15-6.4q-5.94-6.41-5.94-16.09t6-15.85a19.92,19.92,0,0,1,15.07-6.33A17.74,17.74,0,0,1,499,38.24Zm.15,16.17a12.27,12.27,0,0,0-3.43-8.67,12,12,0,0,0-17.11,0,12.41,12.41,0,0,0-3.27,8.67,12.35,12.35,0,0,0,3.35,8.75,11.89,11.89,0,0,0,17,0A12.38,12.38,0,0,0,499.15,54.41Z"/>
        <path class="cls-1" d="M236,109.72V86.37h7.5v59.12H236v-5.85a17.63,17.63,0,0,1-14.52,6.87,20,20,0,0,1-15.16-6.33,22.26,22.26,0,0,1-5.93-15.69A21.63,21.63,0,0,1,206.29,109a19.58,19.58,0,0,1,15-6.4A18,18,0,0,1,236,109.72Zm.55,14.77a15,15,0,0,0-4-10.63,13.16,13.16,0,0,0-10.3-4.37,13.41,13.41,0,0,0-10.39,4.37,15.38,15.38,0,0,0-3.91,10.63,15.56,15.56,0,0,0,3.91,10.77,13.38,13.38,0,0,0,10.39,4.38,13.13,13.13,0,0,0,10.3-4.38A15.2,15.2,0,0,0,236.52,124.49Z"/>
        <path class="cls-1" d="M293.92,123.78c0,.52-.08,1.8-.24,3.83H260.34a14.65,14.65,0,0,0,4.68,8.75q3.68,3.19,10,3.2a25,25,0,0,0,7.73-1.29,24,24,0,0,0,6.87-3.4l3.2,5.7a28.77,28.77,0,0,1-8.12,4.18,29.84,29.84,0,0,1-9.84,1.68,25.64,25.64,0,0,1-10.11-1.87,17.56,17.56,0,0,1-7-5.08,23.38,23.38,0,0,1-3.91-7,24.47,24.47,0,0,1-1.32-8,22,22,0,0,1,5.85-15.62q5.94-6.17,15.31-6.17,8.91,0,14.53,5.7T293.92,123.78Zm-33.58-2.65h25.85a12,12,0,0,0-12.5-11.87,12.59,12.59,0,0,0-8.75,3.32A14.63,14.63,0,0,0,260.34,121.13Z"/>
        <path class="cls-1" d="M314.46,146.43a18.14,18.14,0,0,1-9-2.34,16.31,16.31,0,0,1-6.52-6.72l5.38-4.14a12.44,12.44,0,0,0,4.57,4.92,11.11,11.11,0,0,0,5.82,1.72,8.21,8.21,0,0,0,5.35-1.68,5.11,5.11,0,0,0,2.07-4.1q0-3.36-3.83-5.31c-.67-.36-2.42-1.14-5.23-2.34q-3.9-1.65-5.15-2.35-6.4-3.51-6.41-10.15a10.59,10.59,0,0,1,3.75-8.35q3.67-3.36,9.92-3.36a17.41,17.41,0,0,1,7.65,1.72,13.23,13.23,0,0,1,5.63,4.92l-4.77,4.53a10.54,10.54,0,0,0-9-4.85,6.38,6.38,0,0,0-4.37,1.45,4.6,4.6,0,0,0-1.64,3.63q0,3.28,3.51,4.92l4.61,2a43.73,43.73,0,0,1,5.62,2.58q7.11,3.59,7.11,10.54a11.56,11.56,0,0,1-4.22,9.06A16.09,16.09,0,0,1,314.46,146.43Z"/>
        <path class="cls-1" d="M390.44,109.1v-5.47h7.42V141.2q0,10.06-6.09,16.09t-16.32,6a31,31,0,0,1-18.51-5.94l3.52-5.93a24.61,24.61,0,0,0,14.91,5.08q7,0,11-4a13.18,13.18,0,0,0,4.06-10.07V139a18.41,18.41,0,0,1-14.68,6.56,19.91,19.91,0,0,1-15-6.17,21.32,21.32,0,0,1-6-15.38,21.07,21.07,0,0,1,21.4-21.4A18.08,18.08,0,0,1,390.44,109.1Zm-24.05,25.54a13.77,13.77,0,0,0,10.23,4.21,13.61,13.61,0,0,0,10.23-4.21,14.43,14.43,0,0,0,4.06-10.55,14.16,14.16,0,0,0-4.06-10.46,13.78,13.78,0,0,0-10.23-4.22,13.62,13.62,0,0,0-10.23,4.22,14.16,14.16,0,0,0-4.06,10.46A14.43,14.43,0,0,0,366.39,134.64Z"/>
        <path class="cls-1" d="M416.92,145.49h-7.5V103.63h7.34v5.94q4-7,13.28-7a16.43,16.43,0,0,1,11.79,4.53q4.77,4.53,4.77,13v25.38h-7.42V122.22q0-6-2.93-9.37a9.79,9.79,0,0,0-7.77-3.36,10.83,10.83,0,0,0-8.36,3.59,13.55,13.55,0,0,0-3.2,9.22Z"/>
        <path class="cls-1" d="M97.84,28.35,92,34.14l-5.78-5.79a40.94,40.94,0,1,0-57.89,57.9L34.15,92l52.11,52.11a8.19,8.19,0,0,0,11.58,0l57.89-57.89A40.93,40.93,0,0,0,97.84,28.35Zm53.51,28.94a24.52,24.52,0,0,1-7.19,17.38l-52.11,52.1L57.31,92l52.11-52.1a24.57,24.57,0,0,1,41.93,17.36Z"/>
    </g>
</svg>